<svg width="279.18411" height="155.47701" xmlns="http://www.w3.org/2000/svg">
 <title>Apache Cassandra</title>
 <metadata id="metadata2822">image/svg+xmlApache CassandraApache Software Foundationhttps://svn.apache.org/repos/asf/cassandra/logo/cassandra.svg</metadata>
 <defs>
  <clipPath id="clipPath2832">
   <path id="path2834" d="m-50.134918,851.251396l612,0l0,-792l-612,0l0,792z"/>
  </clipPath>
  <clipPath id="clipPath2844">
   <path id="path2846" d="m-50.134918,851.251396l612,0l0,-792l-612,0l0,792z"/>
  </clipPath>
  <clipPath id="clipPath2852">
   <path id="path2854" d="m45.872882,775.181396l88.2902,0l0,-62.176l-88.2902,0l0,62.176z"/>
  </clipPath>
  <clipPath id="clipPath2868">
   <path id="path2870" d="m-50.134918,851.251396l612,0l0,-792l-612,0l0,792z"/>
  </clipPath>
  <clipPath id="clipPath2880">
   <path id="path2882" d="m-50.134918,851.251396l612,0l0,-792l-612,0l0,792z"/>
  </clipPath>
  <clipPath id="clipPath2908">
   <path id="path2910" d="m-50.134918,851.251396l612,0l0,-792l-612,0l0,792z"/>
  </clipPath>
  <clipPath id="clipPath2936">
   <path id="path2938" d="m-50.134918,851.251396l612,0l0,-792l-612,0l0,792z"/>
  </clipPath>
  <clipPath id="clipPath2944">
   <path id="path2946" d="m71.067082,767.629396l45.899,0l0,-45.859l-45.899,0l0,45.859z"/>
  </clipPath>
  <clipPath id="clipPath2960">
   <path id="path2962" d="m-50.134918,851.251396l612,0l0,-792l-612,0l0,792z"/>
  </clipPath>
  <clipPath id="clipPath2968">
   <path id="path2970" d="m-9.731618,785.439396l212.4017,0l0,-61.818l-212.4017,0l0,61.818z"/>
  </clipPath>
  <clipPath id="clipPath2988">
   <path id="path2990" d="m-50.134918,851.251396l612,0l0,-792l-612,0l0,792z"/>
  </clipPath>
  <clipPath id="clipPath2996">
   <path id="path2998" d="m-10.615418,747.895396l199.3805,0l0,-73.818l-199.3805,0l0,73.818z"/>
  </clipPath>
  <clipPath id="clipPath3016">
   <path id="path3018" d="m-50.134918,851.251396l612,0l0,-792l-612,0l0,792z"/>
  </clipPath>
 </defs>
 <g>
  <title>background</title>
  <rect fill="none" id="canvas_background" height="157.47701" width="281.18411" y="-1" x="-1"/>
 </g>
 <g>
  <title>Layer 1</title>
  <g display="inline" id="layer2">
   <g id="g4555" transform="matrix(1.25,0,0,-1.25,19.117647,990) ">
    <g id="g2828">
     <g id="g2830" clip-path="url(#clipPath2832)">
      <g id="g2836">
       <path fill="#bbe6fb" fill-rule="nonzero" id="path2838" d="m160.743484,749.734795c1.584,-18.452 -27.455,-36.014 -64.859,-39.223c-37.404,-3.209 -69.01,9.151 -70.592,27.602c-1.584,18.455 27.455,36.016 64.859,39.225c37.404,3.208 69.01,-9.149 70.592,-27.604"/>
      </g>
     </g>
    </g>
    <g id="g2840">
     <g id="g2842" clip-path="url(#clipPath2844)">
      <g id="g2848">
       <g id="g2850"/>
       <g id="g2856">
        <g opacity="0.350006" id="g2858" clip-path="url(#clipPath2852)">
         <g id="g2860">
          <path fill="#ffffff" fill-rule="nonzero" id="path2862" d="m91.249374,775.174675c-14.268,0.232 -30.964,-5.433 -43.387,-10.738c-1.293,-3.726 -1.989,-7.689 -1.989,-11.797c0,-21.888 19.764,-39.634 44.145,-39.634c24.381,0 44.145,17.746 44.145,39.634c0,6.927 -1.984,13.435 -5.463,19.101c-9.939,1.545 -23.609,3.209 -37.451,3.434"/>
         </g>
        </g>
       </g>
      </g>
     </g>
    </g>
    <g id="g2864">
     <g id="g2866" clip-path="url(#clipPath2868)">
      <g id="g2872">
       <path fill="#ffffff" fill-rule="nonzero" id="path2874" d="m90.017883,775.17907c-7.899,0.482 -21.514,-3.639 -32.867,-7.75c-1.725,-4.071 -2.683,-8.526 -2.683,-13.201c0,-19.178 17.388,-34.725 35.782,-34.725c18.273,0 34.44,15.572 35.782,34.725c0.436,6.237 -1.711,12.114 -4.692,17.181c-11.77,2.073 -24.261,3.339 -31.322,3.77"/>
      </g>
     </g>
    </g>
    <g id="g2876">
     <g id="g2878" clip-path="url(#clipPath2880)">
      <g id="g2884">
       <path fill="#373535" fill-rule="nonzero" id="path2886" d="m69.74688,756.746025c0.969,2.146 2.437,3.197 3.859,4.996c-0.158,0.426 -0.504,1.819 -0.504,2.302c0,2.156 1.749,3.906 3.906,3.906c0.509,0 0.995,-0.101 1.44,-0.278c6.465,4.927 14.976,7.075 23.529,5.163c0.781,-0.176 1.547,-0.389 2.299,-0.623c-8.453,1.172 -17.981,-1.822 -24.462,-7.053c0.198,-0.467 0.747,-1.802 0.747,-2.339c0,-2.157 -1.396,-2.682 -3.553,-2.682c-0.49,0 -0.958,0.094 -1.391,0.259c-1.464,-1.966 -3.258,-5.711 -4.136,-8.052c3.584,-3.206 6.822,-4.368 11.042,-5.945c-0.011,0.201 0.145,0.387 0.145,0.592c0,6.503 5.725,11.788 12.229,11.788c5.828,0 10.654,-4.238 11.596,-9.798c2.908,1.85 5.72,3.268 7.863,6.01c-0.5,0.61 -1.039,2.337 -1.039,3.187c0,1.957 1.588,3.544 3.545,3.544c0.277,0 0.543,-0.04 0.802,-0.1c1.088,2.236 1.909,4.606 2.434,7.05c-10.17,7.529 -29.847,6.502 -29.847,6.502c0,0 -15.658,0.817 -26.258,-4.349c0.707,-5.111 2.746,-9.97 5.754,-14.08"/>
      </g>
      <g id="g2888">
       <path fill="#373535" fill-rule="nonzero" id="path2890" d="m118.355789,759.679619c0.719,-0.648 1.111,-1.217 1.42,-1.771c0.951,-1.71 -0.957,-3.275 -2.914,-3.275c-0.199,0 -0.391,0.027 -0.582,0.059c-2.205,-3.446 -6.067,-7.865 -9.498,-10.089c5.261,-0.862 10.222,-2.969 14.17,-6.225c2.875,5.151 5.08,12.589 5.08,18.907c0,4.809 -2.123,8.334 -5.328,10.92c-0.168,-2.576 -1.543,-6.179 -2.348,-8.526"/>
      </g>
      <g id="g2892">
       <path fill="#373535" fill-rule="nonzero" id="path2894" d="m75.649284,727.054619c1.753,4.841 6.065,8.592 10.144,11.892c-0.597,0.817 -1.492,2.84 -1.865,3.798c-4.975,1.513 -9.377,4.345 -12.791,8.094c-0.025,-0.109 -0.056,-0.215 -0.082,-0.324c-0.643,-2.881 -0.761,-5.768 -0.441,-8.584c2.382,-0.444 4.185,-2.531 4.185,-5.042c0,-1.489 -1.305,-3.647 -2.318,-4.586c1.101,-2.376 1.852,-3.522 3.168,-5.248"/>
      </g>
      <g id="g2896">
       <path fill="#373535" fill-rule="nonzero" id="path2898" d="m75.340683,722.990715c-2.091,2.079 -3.537,6.226 -4.894,8.83c-0.254,-0.039 -0.514,-0.066 -0.78,-0.066c-2.836,0 -5.807,2.38 -5.135,5.134c0.372,1.524 1.424,2.521 3.137,3.353c-0.39,3.157 -0.496,7.695 0.237,10.977c0.21,0.939 0.655,1.379 0.95,2.273c-3.129,4.579 -5.151,10.589 -5.151,16.552c0,0.218 0.011,0.433 0.016,0.649c-5.288,-2.652 -9.253,-6.83 -9.253,-13.407c0,-14.548 8.379,-28.819 20.846,-34.413c0.009,0.039 0.017,0.079 0.027,0.118"/>
      </g>
      <g id="g2900">
       <path fill="#373535" fill-rule="nonzero" id="path2902" d="m105.996384,743.10247c-1.611,-4.582 -5.967,-7.873 -11.1,-7.873c-2.746,0 -5.265,0.947 -7.267,2.521c-4.127,-3.214 -7.871,-8.86 -9.774,-13.758c0.854,-0.919 1.449,-1.675 2.407,-2.49c2.887,-0.752 6.863,0 9.988,0c12.57,0 23.703,5.592 30.086,15.398c-4.244,2.939 -9.25,5.736 -14.34,6.202"/>
      </g>
     </g>
    </g>
    <g id="g2904">
     <g id="g2906" clip-path="url(#clipPath2908)">
      <g id="g2912">
       <path fill="#1287b1" fill-rule="nonzero" id="path2914" d="m69.424683,755.045769c0.969,2.146 2.184,4.132 3.605,5.931c-0.158,0.425 -0.25,0.884 -0.25,1.367c0,2.156 1.749,3.906 3.906,3.906c0.509,0 0.995,-0.101 1.44,-0.278c6.465,4.927 14.976,7.075 23.529,5.163c0.781,-0.176 1.547,-0.389 2.299,-0.623c-8.453,1.172 -17.187,-1.419 -23.668,-6.651c0.198,-0.466 0.306,-0.98 0.306,-1.517c0,-2.157 -1.749,-3.906 -3.906,-3.906c-0.49,0 -0.958,0.094 -1.391,0.259c-1.464,-1.966 -2.661,-4.138 -3.539,-6.48c3.078,-3.317 6.856,-5.94 11.075,-7.517c-0.01,0.201 -0.031,0.4 -0.031,0.605c0,6.503 5.271,11.775 11.775,11.775c5.828,0 10.654,-4.238 11.596,-9.798c2.908,1.85 5.492,4.226 7.634,6.968c-0.5,0.61 -0.81,1.379 -0.81,2.229c0,1.957 1.588,3.544 3.545,3.544c0.277,0 0.543,-0.04 0.802,-0.1c1.088,2.236 1.909,4.606 2.434,7.05c-10.17,7.529 -29.847,6.502 -29.847,6.502c0,0 -15.658,0.817 -26.258,-4.349c0.707,-5.111 2.746,-9.97 5.754,-14.08"/>
      </g>
      <g id="g2916">
       <path fill="#1287b1" fill-rule="nonzero" id="path2918" d="m118.904678,759.09948c0.719,-0.648 1.18,-1.577 1.18,-2.621c0,-1.957 -1.588,-3.545 -3.545,-3.545c-0.199,0 -0.391,0.027 -0.582,0.059c-2.205,-3.446 -5.127,-6.384 -8.559,-8.608c5.072,-0.793 9.846,-2.945 13.793,-6.201c2.875,5.151 4.518,11.084 4.518,17.402c0,4.809 -2.123,8.334 -5.328,10.92c-0.168,-2.576 -0.672,-5.059 -1.477,-7.406"/>
      </g>
      <g id="g2920">
       <path fill="#1287b1" fill-rule="nonzero" id="path2922" d="m76.190285,725.891472c1.753,4.841 4.799,9.185 8.878,12.484c-0.597,0.818 -1.089,1.711 -1.462,2.669c-4.976,1.513 -9.377,4.345 -12.791,8.094c-0.025,-0.109 -0.057,-0.215 -0.082,-0.324c-0.644,-2.881 -0.762,-5.768 -0.441,-8.584c2.381,-0.444 4.185,-2.531 4.185,-5.042c0,-1.489 -0.639,-2.828 -1.652,-3.767c0.919,-1.948 2.049,-3.804 3.365,-5.53"/>
      </g>
      <g id="g2924">
       <path fill="#1287b1" fill-rule="nonzero" id="path2926" d="m75.326981,723.049675c-2.091,2.079 -3.846,4.467 -5.202,7.07c-0.255,-0.039 -0.515,-0.065 -0.78,-0.065c-2.836,0 -5.135,2.299 -5.135,5.134c0,2.032 1.184,3.784 2.897,4.616c-0.389,3.156 -0.257,6.432 0.477,9.714c0.21,0.938 0.466,1.854 0.761,2.749c-3.129,4.578 -4.962,10.113 -4.962,16.076c0,0.218 0.01,0.433 0.015,0.648c-5.288,-2.651 -9.253,-6.83 -9.253,-13.406c0,-14.549 8.688,-27.06 21.155,-32.654c0.009,0.039 0.017,0.079 0.027,0.118"/>
      </g>
      <g id="g2928">
       <path fill="#1287b1" fill-rule="nonzero" id="path2930" d="m105.674179,741.402275c-1.611,-4.582 -5.967,-7.873 -11.1,-7.873c-2.746,0 -5.265,0.947 -7.267,2.521c-4.127,-3.214 -7.242,-7.595 -9.144,-12.494c0.853,-0.919 1.765,-1.785 2.723,-2.599c2.888,-0.752 5.917,-1.155 9.042,-1.155c12.57,0 23.621,6.49 30.004,16.295c-4.244,2.94 -9.168,4.839 -14.258,5.305"/>
      </g>
     </g>
    </g>
    <g id="g2932">
     <g id="g2934" clip-path="url(#clipPath2936)">
      <g id="g2940">
       <g id="g2942"/>
       <g id="g2948">
        <g id="g2950" clip-path="url(#clipPath2944)">
         <g id="g2952">
          <path fill="#ffffff" fill-rule="nonzero" id="path2954" d="m106.08728,744.438408l10.879,2.595l-10.92,0.557l8.887,6.792l-10.084,-3.615l6.853,9.497l-9.465,-6.291l3.309,11.117l-6.5,-9.163l-0.148,11.579l-4.277,-10.314l-3.566,10.437l0.193,-12.295l-6.163,11.021l3.335,-11.702l-9.997,7.27l7.831,-9.84l-12.411,4.564l9.795,-7.247l-12.56,-0.386l12.842,-3.314l-12.853,-2.779l12.687,-0.92l-10.699,-6.851l11.017,3.994l-7.644,-9.681l9.659,7.79l-3.478,-12.991l7.457,10.572l-1.045,-12.486l4.233,11.319l3.603,-11.897l0.876,11.933l5.348,-10.181l-3.16,11.645l9.793,-7.586l-6.322,9.672l10.744,-4.186l-8.215,8.073l11.016,-0.866l-10.85,4.164z"/>
         </g>
        </g>
       </g>
      </g>
     </g>
    </g>
    <g id="g2956">
     <g id="g2958" clip-path="url(#clipPath2960)">
      <g id="g2964">
       <g id="g2966"/>
       <g id="g2972">
        <g opacity="0.350006" id="g2974" clip-path="url(#clipPath2968)">
         <g id="g2976">
          <path fill="#373535" fill-rule="nonzero" id="path2978" d="m-9.731617,723.621513c33.74,33.739 60.687,44.155 85.143,48.91c3.236,0.629 3.848,7.7 3.848,7.7c0,0 0.453,-5.208 2.718,-5.887c2.264,-0.68 5.207,8.152 5.207,8.152c0,0 -2.717,-7.926 0,-8.379c2.718,-0.453 7.699,7.699 7.699,7.699c0,0 -2.037,-7.019 -0.678,-7.472c1.357,-0.453 8.15,10.189 8.15,10.189c0,0 -4.076,-7.019 -0.226,-7.699c3.851,-0.679 9.467,4.791 9.467,4.791c0,0 -4.416,-5.005 -2.448,-5.696c8.379,-2.945 15.159,7.945 15.159,7.945c0,0 -1.571,-4.775 -5.647,-9.983c8.83,-2.264 15.389,11.039 15.389,11.039l-6.559,-13.303c3.397,-1.813 16.985,13.812 16.985,13.812c0,0 -7.02,-12.228 -11.096,-14.718c2.264,-1.812 10.416,5.434 10.416,5.434c0,0 -6.567,-8.151 -4.076,-8.604c3.623,-2.944 16.982,15.171 16.982,15.171c0,0 -5.207,-10.642 -12.906,-19.021c6.435,-3.219 22.418,17.436 22.418,17.436c0,0 -0.453,-6.567 -12.002,-16.983c8.605,1.132 19.701,17.436 19.701,17.436c0,0 -4.076,-12.228 -13.814,-20.832c8.449,0.879 21.964,21.738 21.964,21.738c0,0 -5.207,-14.492 -15.849,-22.871c11.775,-2.604 28.758,14.945 28.758,14.945c0,0 -6.68,-12.455 -15.399,-17.549c9.738,-3.736 23.098,11.662 23.098,11.662c0,0 -13.36,-20.607 -34.645,-19.701c-6.984,0.297 -28.109,21.188 -73.368,19.474c-59.78,-2.265 -72.46,-27.626 -104.389,-44.835"/>
         </g>
        </g>
       </g>
      </g>
      <g id="g2980">
       <path fill="#373535" fill-rule="nonzero" id="path2982" d="m-8.34882,726.184013c33.74,33.739 60.686,44.154 85.142,48.91c3.237,0.629 3.849,7.699 3.849,7.699c0,0 0.452,-5.209 2.718,-5.887c2.264,-0.679 5.207,8.151 5.207,8.151c0,0 -2.717,-7.926 0,-8.378c2.718,-0.452 7.699,7.699 7.699,7.699c0,0 -2.037,-7.019 -0.68,-7.472c1.359,-0.453 8.152,10.19 8.152,10.19c0,0 -4.076,-7.02 -0.226,-7.699c3.849,-0.68 9.467,4.79 9.467,4.79c0,0 -4.416,-5.005 -2.448,-5.696c8.379,-2.944 15.157,7.945 15.157,7.945c0,0 -1.571,-4.775 -5.645,-9.983c8.83,-2.265 15.389,11.04 15.389,11.04l-6.559,-13.305c3.397,-1.811 16.983,13.812 16.983,13.812c0,0 -7.018,-12.226 -11.094,-14.717c2.264,-1.812 10.416,5.434 10.416,5.434c0,0 -6.567,-8.152 -4.076,-8.604c3.623,-2.945 16.982,15.171 16.982,15.171c0,0 -5.209,-10.643 -12.906,-19.021c6.435,-3.22 22.418,17.436 22.418,17.436c0,0 -0.453,-6.568 -12.002,-16.984c8.605,1.133 19.701,17.437 19.701,17.437c0,0 -4.076,-12.228 -13.814,-20.833c8.449,0.879 21.964,21.738 21.964,21.738c0,0 -5.207,-14.492 -15.849,-22.87c11.775,-2.604 28.758,14.944 28.758,14.944c0,0 -6.68,-12.453 -15.399,-17.548c9.738,-3.736 23.098,11.662 23.098,11.662c0,0 -13.36,-20.607 -34.647,-19.701c-6.982,0.298 -28.107,21.189 -73.367,19.474c-59.779,-2.264 -72.46,-27.625 -104.388,-44.834"/>
      </g>
     </g>
    </g>
    <g id="g2984">
     <g id="g2986" clip-path="url(#clipPath2988)">
      <g id="g2992">
       <g id="g2994"/>
       <g id="g3000">
        <g opacity="0.350006" id="g3002" clip-path="url(#clipPath2996)">
         <g id="g3004">
          <path fill="#373535" fill-rule="nonzero" id="path3006" d="m-10.615417,719.931572c17.832,-8.945 34.137,1.358 54.686,-4.433c15.623,-4.404 34.645,-9.833 60.458,-6.096c25.814,3.735 47.893,14.944 58.424,34.985c3.283,8.943 16.642,-2.039 16.642,-2.039c0,0 -9.736,4.076 -9.509,2.151c0.226,-1.924 14.605,-8.604 14.605,-8.604c0,0 -13.021,4.076 -12.228,1.019c0.793,-3.057 16.302,-15.285 16.302,-15.285c0,0 -17.548,13.36 -19.019,11.549c-1.473,-1.812 7.472,-9.172 7.472,-9.172c0,0 -14.832,9.172 -20.041,6.467c-3.746,-1.943 15.399,-14.506 15.399,-14.506c0,0 -12.455,9.512 -15.399,7.021c-2.943,-2.492 14.04,-22.871 14.04,-22.871c0,0 -19.249,20.833 -21.172,19.814c-1.926,-1.019 5.32,-10.983 5.32,-10.983c0,0 -9.51,10.417 -12.113,8.605c-2.604,-1.812 13.586,-28.871 13.586,-28.871c0,0 -17.549,27.738 -24.795,23.098c11.379,-24.966 7.133,-28.533 7.133,-28.533c0,0 -1.452,25.47 -15.625,24.796c-7.133,-0.34 3.396,-19.021 3.396,-19.021c0,0 -9.691,17.062 -16.145,16.722c11.895,-22.511 7.655,-31.667 7.655,-31.667c0,0 1.967,19.226 -14.166,29.925c6.113,-5.433 -3.836,-29.925 -3.836,-29.925c0,0 8.752,36.091 -6.455,29.21c-2.403,-1.085 -0.17,-18.002 -0.17,-18.002c0,0 -3.057,19.362 -7.641,18.342c-2.673,-0.593 -16.984,-26.833 -16.984,-26.833c0,0 11.719,28.362 8.153,27.173c-2.598,-0.867 -7.473,-12.568 -7.473,-12.568c0,0 2.377,11.549 0,12.228c-2.377,0.68 -15.625,-12.228 -15.625,-12.228c0,0 9.851,11.549 8.152,13.927c-2.574,3.603 -5.591,3.772 -9.171,2.377c-5.209,-2.03 -12.227,-11.548 -12.227,-11.548c0,0 6.996,9.637 5.773,13.247c-1.963,5.8 -22.077,-11.209 -22.077,-11.209c0,0 11.888,11.209 9.171,13.587c-2.717,2.377 -17.471,1.642 -22.078,1.655c-13.586,0.042 -18.294,3.229 -22.418,6.496"/>
         </g>
        </g>
       </g>
      </g>
      <g id="g3008">
       <path fill="#373535" fill-rule="nonzero" id="path3010" d="m-11.294117,721.969719c17.832,-8.945 34.136,1.358 54.685,-4.434c15.623,-4.402 34.646,-9.832 60.46,-6.095c25.814,3.736 47.891,14.945 58.422,34.984c3.283,8.944 16.642,-2.037 16.642,-2.037c0,0 -9.736,4.075 -9.509,2.15c0.226,-1.924 14.605,-8.604 14.605,-8.604c0,0 -13.021,4.075 -12.228,1.018c0.793,-3.056 16.304,-15.284 16.304,-15.284c0,0 -17.55,13.361 -19.021,11.548c-1.471,-1.811 7.473,-9.17 7.473,-9.17c0,0 -14.833,9.17 -20.041,6.467c-3.747,-1.944 15.398,-14.506 15.398,-14.506c0,0 -12.455,9.511 -15.398,7.02c-2.944,-2.492 14.041,-22.871 14.041,-22.871c0,0 -19.25,20.833 -21.174,19.814c-1.924,-1.02 5.322,-10.982 5.322,-10.982c0,0 -9.512,10.416 -12.115,8.604c-2.604,-1.811 13.586,-28.871 13.586,-28.871c0,0 -17.549,27.739 -24.795,23.097c11.379,-24.965 7.133,-28.532 7.133,-28.532c0,0 -1.452,25.47 -15.625,24.795c-7.133,-0.34 3.396,-19.02 3.396,-19.02c0,0 -9.691,17.063 -16.144,16.723c11.896,-22.512 7.654,-31.668 7.654,-31.668c0,0 1.967,19.227 -14.166,29.926c6.113,-5.434 -3.836,-29.926 -3.836,-29.926c0,0 8.754,36.091 -6.453,29.21c-2.403,-1.086 -0.17,-18.002 -0.17,-18.002c0,0 -3.059,19.361 -7.642,18.342c-2.674,-0.593 -16.985,-26.833 -16.985,-26.833c0,0 11.719,28.362 8.153,27.172c-2.598,-0.865 -7.473,-12.566 -7.473,-12.566c0,0 2.378,11.548 0,12.227c-2.377,0.679 -15.624,-12.227 -15.624,-12.227c0,0 9.851,11.548 8.151,13.926c-2.574,3.603 -5.591,3.771 -9.17,2.376c-5.21,-2.029 -12.228,-11.547 -12.228,-11.547c0,0 6.996,9.638 5.774,13.247c-1.964,5.799 -22.077,-11.209 -22.077,-11.209c0,0 11.888,11.209 9.17,13.586c-2.717,2.378 -17.471,1.642 -22.078,1.656c-13.586,0.043 -18.293,3.229 -22.417,6.496"/>
      </g>
     </g>
    </g>
   </g>
  </g>
 </g>
</svg>